<?xml version="1.0" encoding="utf-8"?>
<!-- Generator: Adobe Illustrator 15.0.0, SVG Export Plug-In . SVG Version: 6.00 Build 0)  -->
<!DOCTYPE svg PUBLIC "-//W3C//DTD SVG 1.1//EN" "http://www.w3.org/Graphics/SVG/1.1/DTD/svg11.dtd">
<svg version="1.1" id="tie" xmlns="http://www.w3.org/2000/svg" xmlns:xlink="http://www.w3.org/1999/xlink" x="0" y="0"
	 width="" height="" viewBox="0 0 2480 3052" enable-background="new 0 0 2480 3052" xml:space="preserve">
	<g>
		<path fill-rule="evenodd" clip-rule="evenodd" fill="none" stroke="#000000" stroke-width="8.8064" stroke-miterlimit="10" d="
			M1596.767,3056c0,0,195.211-112.308,250.982-345.678c0,0,4.766-13.201,22.929,15.97c24.218,26.97,75.955,118.5,183.283,160.718
			c0,0,75.405,40.729,174.479,25.318c56.69-6.604,109.308-38.622,115.585-72.103c8.737-46.612,14.129-122.921-11.56-189.339
			c0,0-15.962-48.985-75.405-94.119c-34.674-23.393-10.183-18.988-10.183-18.988s134.075,23.392,233.123-63.572"/>
		<path fill-rule="evenodd" clip-rule="evenodd" fill="none" stroke="#000000" stroke-width="8.8064" stroke-miterlimit="10" d="
			M2480,1672.641c0,0-37.823-7.345-147.904,77.787c-110.081,85.133-173.927,127.693-229.699,157.785
			c-55.771,30.092-152.642,72.652-201.076,87.334c-48.437,14.68-198.791,63.287-306.024,56.51
			c-261.261-16.52-460.873-203.287-460.873-203.287s-97.21-94.712-130.63-132.467c-36.692-41.452-113.749-144.928-143.105-204.75
			c-37.427-60.535-211.354-368.77-237.039-668.188c-11.271-131.4-8.811-137.231-9.542-148.974
			c-0.731-11.744-9.25-208.302-5.135-247.316c8.755-82.977,8.437-171.726,77.788-278.504
			C735.747,92.615,815.555,55.738,815.555,55.738s115.585-63.296,264.194,28.07c0,0,91.366,46.234,114.123,149.71
			c11.007,84.396-16.151,139.437-16.151,139.437l-68.985,144.571l-79.989,139.437c0,0-19.079,34.49-17.613,52.104
			c1.466,17.613,2.933,25.688,49.167,19.083c46.234-6.605,182.007-57.978,372.076-60.915s318.503,143.836,325.839,233.371
			c7.336,89.535-14.681,159.986-39.63,214.292c-24.948,54.305-123.289,163.086-145.307,177.681
			c-22.015,14.595-111.541,70.366-165.851,87.979s-183.474,61.817-469.683,38.158c-204.014-20.546-343.451-152.642-343.451-152.642
			s-170.525-196.288-212.821-273C309.34,862.25,283.131,752.363-3.96,530.736"/>
	</g>
	<path fill-rule="evenodd" clip-rule="evenodd" fill="none" stroke="#FF00BF" stroke-width="8.8064" stroke-miterlimit="10" d="
		M2481.98,2277.344c-19.816,58.343-81.229,95.28-146.983,80.729c-17.406-3.853-55.592-18.714-44.584,0
		c101.274,77.057,136.131,157.785,136.131,157.785s42.569,99.072,44.771,157.785c2.203,58.712-28.62,107.879-79.996,141.634
		c-51.378,33.756-109.986,30.453-167.778,11.739c-57.793-18.714-88.34-74.305-110.082-104.852
		c-32.473-55.315-43.635-63.614-66.873-64.673c-1.583-0.068-6.227,1.102-6.227,1.102c-42.76,5.504-60.99,135.536-73.581,183.283
		c-9.984,37.876-46.405,88.84-62.746,117.977c-36.877,60.905-104.208,96.147-104.208,96.147"/>
	<path fill-rule="evenodd" clip-rule="evenodd" fill="none" stroke="#FF00BF" stroke-width="8.8064" stroke-miterlimit="10" d="M2481.98,1908.943c0,0-89.932-94.669-147.904-158.516c0,0-82.182-102.735-149.701-102.735s-116.687,30.091-217.959,96.87
		c-101.274,66.779-119.617,94.67-198.145,140.903c-78.527,46.234-272.64,157.777-391.526,145.668c0,0-123.669-14.888-255.387-99.073
		c-85.996-54.962-119.987-74.854-300.52-276.302c-19.995-23.606-50.637-67.149-72.653-100.174c0,0-234.239-387.212-254.651-682.864
		c-19.079-180.532-40.291-494.12,146.772-663.42c42.944-38.868,93.938-71.853,221.632-67.514c0,0,201.275,12.968,322.27,220.041
		c48.762,100.556,24.63,194.249,16.77,248.167c-7.603,52.258-27.143,84.397-27.143,84.397s-66.056,162.188-55.779,182.733
		c7.525,10.557,14.311,10.273,33.575,0.366c0,0,254.836-92.833,457.385-66.414c96.871,25.684,129.896,75.22,129.896,75.22
		s51.736,51.738,35.226,172.827c-13.211,90.266-69.352,147.507-69.352,147.507s-45.864,54.399-110.081,92.051
		c-54.945,32.22-124.392,71.97-279.604,88.481c-88.676,8.265-232.606-16.16-353.359-45.133
		c-167.588-40.214-317.389-53.08-609.846-321.435C268.101,943.705,201.45,836.028-1.979,734.754"/>
</svg>
