<svg version="1.1" xmlns="http://www.w3.org/2000/svg" xmlns:xlink="http://www.w3.org/1999/xlink" x="0px" y="0px" width="100%" height="50%" viewBox="0 0 2480 3052" enable-background="new 0 0 2480 3052" xml:space="preserve">
<g id="layer">
	<defs>
		<linearGradient xmlns="http://www.w3.org/2000/svg" id="logoGradient" x1="100%" y1="100%" gradientTransform="rotate(135 .5 .5)">
			
	          <stop offset="0%" stop-color="#16c6c0" stop-opacity="1">
	            <animate attributeName="stop-color" values="#16c6c0;#16b985;#437bbe;#4147c4;#1998ab;#16b985;#16c6c0" dur="18s" repeatCount="indefinite"/>
	          </stop>
	          <stop offset="0.565952" stop-color="#16c6c0" stop-opacity="1">
	            <animate attributeName="stop-color" values="#16c6c0;#1998ab;#437bbe;#4147c4;#16b985;#16c6c0" dur="6s" repeatCount="indefinite"/>
	            <animate attributeName="offset" values=".95;.80;.60;.40;.20;0" dur="14s" repeatCount="indefinite"/>
	          </stop>
	          
		</linearGradient>
	</defs>
	<path fill="url(#logoGradient)" stroke="url(#logoGradient)" stroke-width="5" stroke-miterlimit="10" d="M669.846,856.965
		c11.058,11.374,18.318,19.272,21.8,23.696c-3.16,1.896-5.852,4.43-8.057,7.583c-2.211-4.423-7.424-11.374-15.639-20.852
		c-2.843,14.533-11.216,29.547-25.117,45.021c-0.639-1.586-3.16-3.791-7.583-6.635c10.11-10.11,16.982-20.062,20.615-29.856
		c3.626-9.788,5.45-21.958,5.45-36.491c0-14.527-0.165-23.696-0.474-27.487c4.101,0.948,7.74,1.421,10.9,1.421
		C671.103,817.472,670.478,832.012,669.846,856.965z M712.735,822.843c-0.165,4.107,0,11.539,0.474,22.274
		c0.474,10.742,3.864,22.201,10.189,34.358c6.319,12.164,13.902,21.405,22.748,27.724c-3.482,3.153-6.161,6.161-8.057,9.004
		c-14.217-12.954-24.011-29.856-29.382-50.709c-4.43,20.221-14.691,37.755-30.805,52.604c-2.211-2.534-4.903-4.739-8.057-6.635
		c9.788-7.583,17.219-16.422,22.274-26.539c5.048-10.11,8.214-19.977,9.478-29.62c1.257-9.636,1.58-24.716,0.948-45.259
		c3.792,0.639,7.583,1.113,11.374,1.422C713.281,814.951,712.893,818.742,712.735,822.843zM797.329,819.052
		c-3.16,0.639-5.687,1.112-7.583,1.422v20.852c4.739,0,9.952-0.158,15.639-0.474v7.583c-5.687-0.31-10.9-0.474-15.639-0.474v17.061
		c1.257-1.58,3.317-3.792,6.161-6.635c2.844,3.791,5.134,6.714,6.872,8.768c1.731,2.06,3.712,4.502,5.924,7.345
		c-2.844,1.586-5.213,3.482-7.109,5.687c-1.896-2.843-3.719-5.134-5.45-6.872c-1.737-1.731-3.87-4.028-6.397-6.872V896.3
		c0,4.739,0.158,11.058,0.474,18.957h-9.478c0.309-7.899,0.474-14.217,0.474-18.957v-29.383c-1.896,4.739-3.871,8.932-5.924,12.559
		c-2.06,3.634-5.141,8.458-9.241,14.455c-2.843-3.153-5.852-5.687-9.004-7.583c2.205-1.896,4.502-4.266,6.872-7.109
		c2.369-2.843,4.574-6.082,6.635-9.715c2.053-3.626,3.863-7.346,5.45-11.137c1.58-3.792,2.844-7.267,3.792-10.426
		c-5.055,0-12.164,0.165-21.326,0.474v-7.583c9.162,0.316,16.745,0.474,22.748,0.474v-18.957c-7.899,1.264-13.744,2.37-17.535,3.317
		c-1.264-3.475-2.534-6.47-3.791-9.004c5.048-0.632,8.84-1.02,11.374-1.185c2.528-0.158,5.371-0.546,8.531-1.185l9.952-2.369
		c3.475-0.948,7.108-2.054,10.9-3.317c1.257,3.159,3.001,6.325,5.213,9.478C803.325,818.104,800.481,818.42,797.329,819.052z
		 M829.081,820.947h33.647c-4.739,11.065-8.767,18.562-12.084,22.511c-3.318,3.956-8.136,8.135-14.455,12.559
		c2.844,0.948,5.845,1.896,9.004,2.843c-1.896,2.534-3.633,5.213-5.213,8.057h27.487c-2.534,9.479-6.003,17.377-10.426,23.696
		c-4.43,6.325-9.241,11.301-14.454,14.928c-5.213,3.627-10.828,6.319-16.824,8.057c-6.002,1.731-12.012,3.39-18.008,4.976
		c-1.264-2.844-3.482-6.161-6.635-9.952c8.53-0.948,15.56-1.975,21.089-3.081c5.522-1.106,10.663-3.39,15.402-6.872
		c-1.896-2.843-5.213-6.635-9.952-11.374c1.58-1.257,3.626-2.843,6.161-4.739c2.528,2.211,6.161,5.852,10.9,10.9
		c2.205-2.843,4.423-5.924,6.635-9.241c2.205-3.317,3.792-6.707,4.739-10.189h-21.326c-2.534,2.534-5.213,5.141-8.056,7.819
		c-2.844,2.686-6.635,5.766-11.374,9.242c-2.534-2.844-5.055-5.049-7.583-6.635c8.214-4.739,14.053-9.077,17.535-13.033
		c3.475-3.949,6.319-8.451,8.53-13.506c-3.791,2.534-7.424,4.582-10.9,6.161c-3.482,1.586-7.898,3.317-13.27,5.213
		c-1.264-3.153-3.633-6.47-7.109-9.952c5.997-0.632,11.058-1.659,15.166-3.081c4.101-1.422,8.84-3.712,14.217-6.872
		c-4.43-3.792-7.898-6.793-10.426-9.004c1.257-1.58,3.317-3.476,6.161-5.687c4.101,3.482,7.74,6.799,10.9,9.952
		c2.527-2.205,4.739-4.575,6.635-7.109c1.896-2.527,3.475-5.687,4.739-9.478h-25.118c-4.107,6.635-7.898,12.012-11.374,16.113
		c-2.843-1.896-5.687-3.626-8.53-5.213c5.687-5.687,9.952-10.972,12.796-15.876c2.843-4.897,5.213-10.189,7.108-15.876
		c4.739,1.586,8.688,2.686,11.848,3.317C834.452,812.733,831.924,816.208,829.081,820.947zM878.368,848.908
		c4.739,0.316,10.426,0.474,17.061,0.474h18.009c5.687,0,12.157-0.158,19.43-0.474v8.531c-7.273-0.31-13.585-0.474-18.957-0.474
		h-5.213c-1.896,5.055-4.028,10.426-6.398,16.113c-2.37,5.687-5.141,11.374-8.293,17.061c12.322-1.257,21.636-2.527,27.961-3.791
		c-1.586-3.792-4.107-8.531-7.583-14.218c3.475-1.896,5.996-3.475,7.583-4.739c3.153,5.687,5.845,10.505,8.057,14.454
		c2.205,3.956,4.574,8.768,7.108,14.455c-2.534,1.586-5.377,3.159-8.53,4.739c-1.264-2.844-2.37-5.213-3.317-7.109
		c-10.117,1.586-18.246,2.843-24.407,3.792c-6.161,0.947-11.453,2.211-15.876,3.791c-1.264-3.153-2.843-6.161-4.739-9.004
		c4.101-2.527,7.819-7.583,11.137-15.165s5.759-14.375,7.346-20.378h-3.317c-6.635,0-12.322,0.165-17.061,0.474V848.908z
		 M911.068,822.369c5.371,0,11.374-0.158,18.009-0.474v9.004c-6.635-0.309-12.638-0.474-18.009-0.474h-11.374
		c-5.055,0-9.952,0.165-14.691,0.474v-9.004c4.423,0.316,9.163,0.474,14.217,0.474H911.068z M962.25,810.047
		c-0.639,3.16-1.027,6.714-1.185,10.663c-0.165,3.956-0.237,8.768-0.237,14.455h26.539c-0.316,4.107-0.638,8.695-0.948,13.743
		l-2.37,54.026c-0.948,6.319-3.554,10.189-7.819,11.611c-4.265,1.421-9.083,2.442-14.455,3.081
		c-0.948-3.792-2.534-7.273-4.739-10.426c6.944,0.309,11.684-0.079,14.218-1.185c2.527-1.105,3.791-3.238,3.791-6.397l2.844-56.396
		h-17.061c-0.638,13.908-1.659,24.485-3.081,31.752c-1.421,7.273-3.633,13.98-6.635,20.141c-3.008,6.161-9.083,14.139-18.246,23.933
		c-3.159-3.159-6.003-5.213-8.53-6.161c5.996-4.739,10.9-9.715,14.691-14.928c3.791-5.213,6.47-10.584,8.056-16.113
		c1.58-5.522,2.679-11.295,3.317-17.298c0.632-5.996,1.106-13.105,1.422-21.326h-8.057c-3.482,0-7.583,0.164-12.321,0.474v-9.004
		c4.739,0.316,9.162,0.474,13.27,0.474h7.108v-13.27c0-4.423-0.165-8.84-0.474-13.27
		C955.142,809.574,958.769,810.047,962.25,810.047zM1044.711,830.426v70.139
		c0,6.635-1.422,10.663-4.265,12.084c-2.844,1.422-6.8,2.765-11.848,4.028c-1.264-4.739-2.843-8.53-4.739-11.374
		c4.423,0,7.583-0.158,9.479-0.474c1.896-0.31,2.843-2.679,2.843-7.108v-23.696h-18.482c-0.639,7.898-1.738,15.165-3.317,21.8
		c-1.586,6.635-3.792,13.105-6.635,19.431c-2.534-2.212-5.529-4.107-9.004-5.687c3.792-6.944,6.398-13.507,7.82-19.667
		c1.421-6.161,2.369-12.394,2.843-18.72c0.474-6.319,0.711-16.271,0.711-29.856c0-13.579-0.165-23.057-0.474-28.435h35.543
		C1044.869,815.425,1044.711,821.264,1044.711,830.426z M1036.181,865.969v-18.957h-17.535l-0.474,18.957H1036.181z
		 M1036.181,838.956v-18.009h-17.535v18.009H1036.181z M1064.616,917.152h-9.004c0.31-7.583,0.474-14.691,0.474-21.326v-65.874
		c0-5.371-0.164-11.209-0.474-17.535h44.074c-0.316,4.43-0.638,9.241-0.948,14.454c-0.316,5.213-0.79,9.169-1.422,11.848
		c-0.638,2.686-2.534,4.667-5.687,5.924c-3.16,1.264-7.273,2.211-12.322,2.843c-0.948-3.791-2.37-6.944-4.265-9.478
		c7.892,0,12.321-0.869,13.27-2.606c0.948-1.731,1.421-6.707,1.421-14.928h-25.117v31.752h39.334
		c-1.264,8.221-2.843,15.567-4.739,22.037c-1.896,6.477-4.43,12.875-7.583,19.193c5.371,6.326,11.532,11.064,18.482,14.218
		c-2.211,1.896-4.43,4.574-6.635,8.056c-6.003-4.107-11.69-9.169-17.061-15.165c-3.791,5.377-9.004,11.058-15.639,17.061
		c-1.586-2.844-3.317-5.378-5.213-7.583c4.423-3.159,9.313-8.53,14.691-16.113c-4.107-5.371-8.221-16.587-12.322-33.648h-3.317
		V917.152z M1085.468,886.348c3.792-7.267,6.47-15.949,8.057-26.065h-17.061C1078.991,872.295,1081.986,880.977,1085.468,886.348zM1163.189,820h52.604
		c-2.844,4.739-6.563,9.794-11.137,15.166c-4.582,5.377-10.354,10.426-17.298,15.165c4.423,2.844,10.426,4.976,18.009,6.398
		c7.582,1.421,16.587,2.297,27.013,2.606c-2.534,2.843-4.265,6.161-5.213,9.952c-8.847-0.632-17.535-2.205-26.065-4.739
		c-8.53-2.527-15.639-5.522-21.326-9.004c-10.117,4.739-19.272,8.221-27.487,10.426c-8.221,2.211-16.278,3.956-24.169,5.213
		c-1.264-3.791-3.16-7.108-5.687-9.952c6.944,0,14.849-0.948,23.696-2.843c8.84-1.896,17.535-4.575,26.065-8.057
		c-6.635-6.319-12.322-12.796-17.061-19.431c-5.377,6.635-10.9,12.164-16.587,16.587c-2.211-2.527-5.055-4.423-8.53-5.687
		c8.84-6.319,15.323-12.395,19.431-18.246c4.101-5.845,7.108-11.295,9.004-16.35c4.101,2.211,7.892,3.956,11.374,5.213
		C1167.29,814.629,1165.085,817.156,1163.189,820z M1168.876,874.974c0.632-3.792,0.948-8.215,0.948-13.27
		c3.792,0.639,7.583,1.112,11.374,1.422c-0.947,1.896-1.896,5.852-2.844,11.848h38.387c-0.315,3.791-0.638,8.136-0.947,13.033
		c-0.316,4.904-0.875,10.189-1.658,15.876c-0.791,5.687-3.081,9.004-6.872,9.952c-3.792,0.948-9.794,1.896-18.009,2.843
		c-0.639-4.107-2.212-7.583-4.739-10.426c9.162,0,14.691-0.31,16.587-0.948c1.896-0.632,3.152-2.37,3.791-5.213l1.422-18.009
		h-28.908c-4.43,13.586-10.663,22.438-18.72,26.54c-8.057,4.101-16.666,7.741-25.828,10.9c-0.948-2.844-3.16-6.161-6.635-9.952
		c7.583-0.639,15.475-3.008,23.695-7.109c8.215-4.101,14.053-10.9,17.535-20.378h-10.9c-9.478,0-16.429,0.316-20.852,0.948V874.5
		c4.739,0.316,11.848,0.474,21.326,0.474H1168.876z M1198.733,827.108h-35.544c5.997,7.898,11.684,13.908,17.062,18.009
		C1186.569,841.326,1192.729,835.33,1198.733,827.108zM1266.266,909.569
		c-9.32,1.58-15.876,3.001-19.667,4.265c-0.948-4.107-2.061-8.057-3.318-11.848c5.688-0.31,10.348-0.632,13.98-0.948
		c3.627-0.31,7.979-0.784,13.033-1.422v-18.483h-6.635c-6.325,0-11.689,0.316-16.113,0.948v-9.004
		c5.371,0.316,10.262,0.474,14.691,0.474h8.057v-15.639c-6.325,0.316-10.828,0.639-13.506,0.948
		c-2.686,0.316-5.615,0.79-8.768,1.422c-0.639-4.101-1.587-7.74-2.844-10.9c5.049-1.257,9.551-4.423,13.506-9.478
		c3.949-5.049,7.03-10.736,9.242-17.061h-7.109c-5.377,0-10.426,0.165-15.165,0.474v-9.004c5.049,0.316,9.952,0.474,14.691,0.474
		h30.331c5.687,0,10.734-0.158,15.164-0.474v9.004c-4.738-0.309-9.794-0.474-15.164-0.474h-19.432l8.531,5.687
		c-3.16,2.534-6.161,5.687-9.005,9.478c-2.843,3.792-6.161,7.898-9.952,12.322c11.374-0.632,21.958-1.257,31.752-1.896
		c-2.533-4.101-5.377-8.215-8.529-12.322c3.152-1.58,5.996-3.317,8.529-5.213c3.153,4.43,6.161,8.695,9.005,12.796
		c2.843,4.107,5.522,7.898,8.057,11.374c-2.844,2.211-6.003,4.265-9.479,6.161c-1.264-2.205-2.37-4.101-3.317-5.687
		c-6.635,0.948-12.164,1.586-16.587,1.896v16.113h9.005c5.371,0,9.951-0.158,13.743-0.474v9.004
		c-4.107-0.632-8.53-0.948-13.27-0.948h-9.479v17.535c8.84-1.257,18.167-2.679,27.961-4.265c-0.639,3.159-1.112,6.161-1.422,9.004
		C1289.086,905.942,1275.579,907.983,1266.266,909.569z M1323.372,840.378v35.543c0,6.635,0.158,12.164,0.475,16.587h-9.953
		c0.31-4.423,0.475-9.952,0.475-16.587v-37.439c0-6.319-0.165-11.374-0.475-15.166h10.427
		C1323.682,827.424,1323.372,833.111,1323.372,840.378z M1347.542,824.265v77.722c0,7.267-1.35,11.532-4.028,12.795
		c-2.686,1.257-8.458,2.679-17.298,4.265c-0.948-4.107-2.369-7.898-4.266-11.374c6.635,0,10.973-0.237,13.033-0.711
		c2.053-0.474,3.08-3.081,3.08-7.82v-74.878c0-6.944-0.164-12.321-0.474-16.113h10.899
		C1347.851,812.891,1347.542,818.269,1347.542,824.265zM1403.938,819.052
		c-3.159,0.639-5.687,1.112-7.583,1.422v20.852c4.739,0,9.952-0.158,15.64-0.474v7.583c-5.688-0.31-10.9-0.474-15.64-0.474v17.061
		c1.258-1.58,3.317-3.792,6.161-6.635c2.844,3.791,5.134,6.714,6.872,8.768c1.73,2.06,3.712,4.502,5.924,7.345
		c-2.844,1.586-5.213,3.482-7.109,5.687c-1.896-2.843-3.719-5.134-5.449-6.872c-1.738-1.731-3.87-4.028-6.398-6.872V896.3
		c0,4.739,0.158,11.058,0.475,18.957h-9.479c0.31-7.899,0.474-14.217,0.474-18.957v-29.383c-1.896,4.739-3.87,8.932-5.924,12.559
		c-2.06,3.634-5.141,8.458-9.241,14.455c-2.844-3.153-5.852-5.687-9.004-7.583c2.205-1.896,4.502-4.266,6.871-7.109
		c2.37-2.843,4.575-6.082,6.635-9.715c2.054-3.626,3.864-7.346,5.45-11.137c1.58-3.792,2.844-7.267,3.791-10.426
		c-5.055,0-12.163,0.165-21.326,0.474v-7.583c9.163,0.316,16.745,0.474,22.748,0.474v-18.957c-7.898,1.264-13.743,2.37-17.534,3.317
		c-1.264-3.475-2.534-6.47-3.792-9.004c5.049-0.632,8.84-1.02,11.374-1.185c2.527-0.158,5.371-0.546,8.53-1.185l9.952-2.369
		c3.476-0.948,7.109-2.054,10.9-3.317c1.257,3.159,3.002,6.325,5.213,9.478C1409.934,818.104,1407.091,818.42,1403.938,819.052z
		 M1435.689,820.947h33.648c-4.739,11.065-8.768,18.562-12.085,22.511c-3.317,3.956-8.136,8.135-14.455,12.559
		c2.844,0.948,5.846,1.896,9.005,2.843c-1.896,2.534-3.634,5.213-5.213,8.057h27.487c-2.535,9.479-6.004,17.377-10.427,23.696
		c-4.43,6.325-9.241,11.301-14.454,14.928s-10.828,6.319-16.824,8.057c-6.003,1.731-12.012,3.39-18.009,4.976
		c-1.264-2.844-3.481-6.161-6.635-9.952c8.53-0.948,15.561-1.975,21.089-3.081c5.523-1.106,10.664-3.39,15.402-6.872
		c-1.896-2.843-5.213-6.635-9.952-11.374c1.58-1.257,3.627-2.843,6.161-4.739c2.527,2.211,6.161,5.852,10.9,10.9
		c2.205-2.843,4.423-5.924,6.635-9.241c2.205-3.317,3.791-6.707,4.738-10.189h-21.325c-2.534,2.534-5.214,5.141-8.057,7.819
		c-2.844,2.686-6.635,5.766-11.374,9.242c-2.534-2.844-5.055-5.049-7.583-6.635c8.215-4.739,14.053-9.077,17.535-13.033
		c3.476-3.949,6.318-8.451,8.53-13.506c-3.791,2.534-7.425,4.582-10.9,6.161c-3.481,1.586-7.898,3.317-13.27,5.213
		c-1.264-3.153-3.633-6.47-7.108-9.952c5.996-0.632,11.058-1.659,15.165-3.081c4.101-1.422,8.84-3.712,14.218-6.872
		c-4.43-3.792-7.898-6.793-10.426-9.004c1.257-1.58,3.317-3.476,6.16-5.687c4.101,3.482,7.741,6.799,10.9,9.952
		c2.527-2.205,4.739-4.575,6.635-7.109c1.896-2.527,3.476-5.687,4.739-9.478h-25.117c-4.107,6.635-7.898,12.012-11.374,16.113
		c-2.844-1.896-5.688-3.626-8.53-5.213c5.687-5.687,9.952-10.972,12.795-15.876c2.844-4.897,5.213-10.189,7.109-15.876
		c4.738,1.586,8.688,2.686,11.848,3.317C1441.061,812.733,1438.533,816.208,1435.689,820.947zM1484.977,848.908
		c4.739,0.316,10.426,0.474,17.061,0.474h18.009c5.688,0,12.157-0.158,19.431-0.474v8.531c-7.273-0.31-13.585-0.474-18.956-0.474
		h-5.214c-1.896,5.055-4.028,10.426-6.397,16.113c-2.369,5.687-5.141,11.374-8.293,17.061c12.321-1.257,21.635-2.527,27.961-3.791
		c-1.587-3.792-4.107-8.531-7.583-14.218c3.476-1.896,5.996-3.475,7.583-4.739c3.152,5.687,5.845,10.505,8.056,14.454
		c2.205,3.956,4.575,8.768,7.109,14.455c-2.534,1.586-5.378,3.159-8.53,4.739c-1.265-2.844-2.37-5.213-3.318-7.109
		c-10.116,1.586-18.245,2.843-24.406,3.792c-6.16,0.947-11.453,2.211-15.876,3.791c-1.264-3.153-2.844-6.161-4.739-9.004
		c4.101-2.527,7.82-7.583,11.137-15.165c3.318-7.583,5.76-14.375,7.346-20.378h-3.317c-6.635,0-12.321,0.165-17.061,0.474V848.908z
		 M1517.677,822.369c5.371,0,11.374-0.158,18.009-0.474v9.004c-6.635-0.309-12.638-0.474-18.009-0.474h-11.374
		c-5.055,0-9.952,0.165-14.691,0.474v-9.004c4.423,0.316,9.162,0.474,14.218,0.474H1517.677z M1568.859,810.047
		c-0.639,3.16-1.027,6.714-1.185,10.663c-0.165,3.956-0.237,8.768-0.237,14.455h26.539c-0.315,4.107-0.639,8.695-0.948,13.743
		l-2.369,54.026c-0.947,6.319-3.555,10.189-7.819,11.611c-4.266,1.421-9.083,2.442-14.454,3.081
		c-0.948-3.792-2.534-7.273-4.739-10.426c6.944,0.309,11.683-0.079,14.217-1.185c2.528-1.105,3.792-3.238,3.792-6.397l2.843-56.396
		h-17.061c-0.639,13.908-1.659,24.485-3.08,31.752c-1.422,7.273-3.634,13.98-6.635,20.141c-3.009,6.161-9.084,14.139-18.246,23.933
		c-3.159-3.159-6.003-5.213-8.53-6.161c5.996-4.739,10.9-9.715,14.691-14.928c3.791-5.213,6.47-10.584,8.057-16.113
		c1.579-5.522,2.679-11.295,3.317-17.298c0.632-5.996,1.105-13.105,1.421-21.326h-8.056c-3.482,0-7.583,0.164-12.322,0.474v-9.004
		c4.739,0.316,9.162,0.474,13.27,0.474h7.108v-13.27c0-4.423-0.164-8.84-0.474-13.27
		C1561.751,809.574,1565.377,810.047,1568.859,810.047zM1654.638,810.995
		c-0.639,8.847-0.948,16.429-0.948,22.748v69.665h15.64v-75.352c0-5.048-0.316-10.735-0.948-17.061h11.848
		c-0.638,5.055-0.947,10.426-0.947,16.113v76.3h18.482c5.049,0,11.209-0.309,18.482-0.948v10.426
		c-7.273-0.639-13.27-0.948-18.009-0.948h-72.034c-4.431,0-10.742,0.309-18.957,0.948V902.46c8.215,0.639,14.376,0.948,18.482,0.948
		h17.535V833.27c0-6.635-0.474-14.053-1.422-22.274H1654.638z M1636.155,877.817c-3.482,0.639-7.109,1.896-10.9,3.792
		c-5.687-18.318-10.742-32.536-15.165-42.652c3.152-1.257,6.635-2.679,10.426-4.265
		C1624.308,844.485,1629.521,858.86,1636.155,877.817z M1694.92,882.556c-3.159-1.896-6.477-3.317-9.952-4.265
		c6.635-12.322,11.684-27.171,15.165-44.548c3.476,1.264,7.419,2.534,11.849,3.791
		C1707.874,848.276,1702.187,863.29,1694.92,882.556zM1769.799,820h52.604
		c-2.844,4.739-6.563,9.794-11.138,15.166c-4.581,5.377-10.354,10.426-17.298,15.165c4.424,2.844,10.426,4.976,18.009,6.398
		c7.583,1.421,16.587,2.297,27.013,2.606c-2.533,2.843-4.265,6.161-5.213,9.952c-8.846-0.632-17.534-2.205-26.064-4.739
		c-8.531-2.527-15.64-5.522-21.326-9.004c-10.117,4.739-19.272,8.221-27.487,10.426c-8.221,2.211-16.277,3.956-24.17,5.213
		c-1.264-3.791-3.159-7.108-5.687-9.952c6.944,0,14.85-0.948,23.695-2.843c8.84-1.896,17.535-4.575,26.065-8.057
		c-6.635-6.319-12.321-12.796-17.061-19.431c-5.378,6.635-10.9,12.164-16.587,16.587c-2.212-2.527-5.056-4.423-8.531-5.687
		c8.84-6.319,15.324-12.395,19.431-18.246c4.101-5.845,7.109-11.295,9.005-16.35c4.101,2.211,7.892,3.956,11.374,5.213
		C1773.899,814.629,1771.694,817.156,1769.799,820z M1775.485,874.974c0.632-3.792,0.948-8.215,0.948-13.27
		c3.791,0.639,7.582,1.112,11.374,1.422c-0.948,1.896-1.896,5.852-2.844,11.848h38.387c-0.316,3.791-0.639,8.136-0.947,13.033
		c-0.316,4.904-0.876,10.189-1.659,15.876c-0.79,5.687-3.08,9.004-6.872,9.952c-3.791,0.948-9.794,1.896-18.009,2.843
		c-0.638-4.107-2.211-7.583-4.739-10.426c9.163,0,14.691-0.31,16.588-0.948c1.896-0.632,3.152-2.37,3.791-5.213l1.422-18.009
		h-28.909c-4.43,13.586-10.663,22.438-18.72,26.54c-8.057,4.101-16.666,7.741-25.828,10.9c-0.947-2.844-3.159-6.161-6.635-9.952
		c7.583-0.639,15.475-3.008,23.695-7.109c8.215-4.101,14.054-10.9,17.535-20.378h-10.899c-9.479,0-16.43,0.316-20.853,0.948V874.5
		c4.739,0.316,11.848,0.474,21.326,0.474H1775.485z M1805.342,827.108h-35.543c5.996,7.898,11.683,13.908,17.061,18.009
		C1793.178,841.326,1799.339,835.33,1805.342,827.108zM631.13,1023.131l8.478-42.284h-5.272c0.921-6.872,2.291-13.75,4.127-20.622h35.517l4.246,48.01
		l23.946-48.01h35.517c-0.842,6.872-2.211,13.75-4.121,20.622h-5.16l-8.478,42.284h5.154c-0.382,3.436-0.915,6.872-1.599,10.308
		c-0.691,3.442-1.494,6.878-2.409,10.314h-30.363l8.82-44.456l-19.819,42.738h-17.074l-2.633-42.738l-8.827,44.456h-29.33
		c0.382-3.436,0.915-6.872,1.606-10.314c0.685-3.436,1.488-6.872,2.402-10.308H631.13zM732.988,1013.501c1.988-0.151,3.995-0.263,6.016-0.342c2.027-0.072,4.028-0.112,6.016-0.112
		s3.936,0.04,5.845,0.112c1.909,0.079,3.857,0.191,5.845,0.342c-0.31,1.303-0.48,2.139-0.52,2.521s-0.053,0.652-0.053,0.803
		c0,1.988,1.086,3.666,3.265,5.042c2.179,1.375,5.325,2.06,9.452,2.06c2.902,0,5.022-0.494,6.358-1.488
		c1.336-0.994,2.007-2.139,2.007-3.436c0-1.225-0.31-2.159-0.921-2.811c-0.612-0.646-1.981-1.277-4.121-1.889l-12.604-3.778
		c-2.521-0.763-5.042-1.646-7.563-2.639c-2.521-0.987-4.792-2.311-6.819-3.949c-2.021-1.646-3.686-3.726-4.982-6.247
		c-1.303-2.521-1.948-5.687-1.948-9.511c0-3.969,0.823-7.754,2.461-11.341c1.646-3.594,3.996-6.76,7.05-9.512
		c3.054-2.751,6.72-4.93,10.999-6.529c4.278-1.606,9.05-2.409,14.323-2.409c4.812,0,8.748,0.48,11.802,1.435
		s5.345,1.929,6.878,2.922l0.454-2.521c1.757-0.158,3.475-0.27,5.16-0.349c1.679-0.072,3.396-0.112,5.154-0.112
		s3.456,0.04,5.101,0.112c1.639,0.079,3.337,0.191,5.095,0.349l-5.384,27.27c-1.988,0.151-3.976,0.263-5.957,0.342
		c-1.988,0.079-3.976,0.112-5.957,0.112c-1.988,0-3.956-0.033-5.904-0.112c-1.948-0.079-3.916-0.191-5.897-0.342
		c0.151-0.764,0.244-1.303,0.283-1.606c0.04-0.303,0.059-0.533,0.059-0.685c0-1.606-0.842-3.021-2.521-4.246
		c-1.685-1.218-4.206-1.83-7.563-1.83c-3.133,0-5.272,0.5-6.418,1.488c-1.145,0.994-1.718,2.027-1.718,3.094
		c0,0.994,0.342,1.777,1.033,2.35c0.685,0.573,1.948,1.125,3.778,1.659l11.571,3.442c4.127,1.146,7.662,2.422,10.604,3.837
		c2.936,1.416,5.345,3.074,7.214,4.983c1.869,1.909,3.245,4.087,4.127,6.529c0.875,2.449,1.316,5.312,1.316,8.596
		c0,4.048-0.533,7.603-1.606,10.657c-1.066,3.054-2.501,5.713-4.292,7.964c-1.797,2.251-3.864,4.14-6.187,5.667
		c-2.337,1.534-4.779,2.738-7.339,3.614s-5.114,1.507-7.675,1.889c-2.561,0.381-4.982,0.573-7.273,0.573
		c-3.133,0-5.983-0.171-8.537-0.514c-2.561-0.342-4.779-0.744-6.648-1.205c-1.87-0.46-3.396-0.935-4.582-1.435
		c-1.185-0.493-2.007-0.855-2.461-1.086l-0.579,2.521c-1.83,0.151-3.646,0.27-5.437,0.342c-1.797,0.079-3.574,0.119-5.332,0.119
		s-3.515-0.04-5.272-0.119c-1.758-0.072-3.515-0.191-5.266-0.342L732.988,1013.501zM812.968,1023.131l8.478-42.284h-5.272c0.921-6.872,2.291-13.75,4.127-20.622h37.354
		c-0.842,6.872-2.218,13.75-4.127,20.622h-6.417l-8.359,41.935h13.75l2.633-13.289c1.909-0.151,3.798-0.27,5.674-0.342
		c1.869-0.079,3.758-0.119,5.667-0.119c1.909,0,3.805,0.04,5.674,0.119c1.87,0.072,3.765,0.191,5.674,0.342l-6.76,34.26h-67.375
		c0.382-3.436,0.915-6.872,1.606-10.314c0.685-3.436,1.487-6.872,2.402-10.308H812.968zM929.261,1016.595h-4.581c0.382-3.436,0.895-6.773,1.547-10.024c0.651-3.245,1.468-6.589,2.461-10.025
		h35.636c-0.382,3.436-0.895,6.78-1.547,10.025c-0.645,3.251-1.468,6.588-2.461,10.024h-3.778l-4.357,22.004
		c-0.685,0.303-1.968,0.855-3.837,1.659c-1.876,0.803-4.258,1.606-7.161,2.409c-2.903,0.796-6.286,1.527-10.143,2.172
		c-3.857,0.652-8.155,0.974-12.888,0.974c-6.8,0-12.565-0.954-17.305-2.863c-4.732-1.909-8.577-4.502-11.512-7.793
		c-2.942-3.278-5.062-7.142-6.358-11.571c-1.303-4.43-1.948-9.123-1.948-14.092c0-5.884,0.974-11.875,2.922-17.989
		c1.942-6.108,4.845-11.63,8.708-16.561c3.851-4.923,8.609-8.952,14.263-12.084c5.654-3.133,12.223-4.7,19.707-4.7
		c4.43,0,8.326,0.48,11.69,1.435c3.357,0.955,5.917,2.001,7.675,3.153l0.573-2.521c3.515-0.23,7.029-0.349,10.544-0.349
		c3.054,0,6.147,0.119,9.281,0.349l-6.417,31.962c-2.067,0.158-4.127,0.27-6.188,0.349c-2.067,0.072-4.127,0.112-6.187,0.112
		c-2.067,0-4.107-0.04-6.135-0.112c-2.021-0.079-4.028-0.191-6.016-0.349l0.573-3.436c0.079-0.381,0.138-0.763,0.178-1.145
		c0.033-0.382,0.053-0.764,0.053-1.145c0-2.061-0.665-3.667-2.001-4.812c-1.343-1.146-3.423-1.718-6.247-1.718
		c-1.988,0-4.048,0.612-6.187,1.83c-2.139,1.225-4.087,3.061-5.845,5.503c-1.758,2.442-3.206,5.536-4.351,9.281
		c-1.152,3.745-1.725,8.175-1.725,13.29c0,5.121,1.053,8.728,3.153,10.827c2.1,2.106,5.022,3.153,8.768,3.153
		c1.606,0,2.995-0.073,4.18-0.23c1.185-0.151,1.856-0.264,2.007-0.342L929.261,1016.595zM966.502,1023.131l8.478-42.284h-5.272c0.921-6.872,2.291-13.75,4.127-20.622h40.678
		c4.199,0,7.997,0.381,11.4,1.145c3.396,0.764,6.279,2.041,8.649,3.837s4.2,4.14,5.503,7.043c1.296,2.909,1.948,6.457,1.948,10.656
		c0,5.963-1.455,11.098-4.357,15.416s-6.681,7.925-11.341,10.828l3.666,13.98h8.136c-0.382,3.436-0.915,6.872-1.606,10.308
		c-0.685,3.442-1.487,6.878-2.402,10.314h-27.388l-6.648-30.021h-6.411l-1.948,9.399h5.042c-0.388,3.436-0.921,6.872-1.606,10.308
		c-0.691,3.442-1.488,6.878-2.409,10.314h-35.517c0.382-3.436,0.915-6.872,1.606-10.314c0.685-3.436,1.488-6.872,2.402-10.308
		H966.502z M1007.292,993.794c2.521,0,4.581-0.704,6.187-2.119s2.409-3.337,2.409-5.786c0-2.291-0.671-3.765-2.007-4.41
		c-1.336-0.652-2.692-0.974-4.068-0.974h-9.511l-2.633,13.289H1007.292zM1042.585,1009.493c0-6.036,0.935-12.105,2.804-18.219c1.87-6.108,4.792-11.611,8.768-16.501
		c3.969-4.884,8.971-8.879,15.007-11.973c6.036-3.094,13.256-4.64,21.655-4.64c7.642,0,13.94,1.185,18.91,3.554
		c4.963,2.37,8.879,5.364,11.743,8.991c2.863,3.633,4.871,7.563,6.016,11.802c1.145,4.245,1.718,8.234,1.718,11.979
		c0,6.029-0.935,12.104-2.804,18.213c-1.875,6.115-4.798,11.617-8.767,16.501c-3.976,4.891-8.998,8.879-15.066,11.973
		c-6.076,3.093-13.276,4.64-21.603,4.64c-7.635,0-13.941-1.185-18.904-3.548c-4.969-2.369-8.879-5.364-11.742-8.998
		c-2.87-3.626-4.871-7.563-6.016-11.802C1043.158,1017.227,1042.585,1013.238,1042.585,1009.493z M1082.111,1023.815
		c3.054,0,5.733-0.915,8.024-2.751c2.291-1.83,4.18-4.18,5.674-7.043c1.487-2.87,2.593-6.016,3.317-9.458
		c0.73-3.436,1.092-6.76,1.092-9.965c0-1.527-0.158-3.153-0.46-4.871c-0.303-1.718-0.856-3.285-1.659-4.7
		c-0.803-1.409-1.876-2.574-3.212-3.495c-1.336-0.915-3.074-1.369-5.213-1.369c-3.054,0-5.727,0.915-8.017,2.745
		c-2.291,1.836-4.186,4.187-5.674,7.05c-1.487,2.863-2.6,6.016-3.324,9.452c-0.724,3.436-1.086,6.76-1.086,9.972
		c0,1.527,0.151,3.146,0.455,4.864c0.309,1.724,0.862,3.291,1.665,4.699c0.803,1.415,1.869,2.58,3.206,3.495
		C1078.234,1023.354,1079.972,1023.815,1082.111,1023.815zM1138.375,980.847h-5.272c0.922-6.872,2.291-13.75,4.127-20.622h38.841
		c-0.915,6.872-2.291,13.75-4.121,20.622h-6.306l-6.299,31.508c-0.31,1.455-0.461,2.863-0.461,4.239c0,2.83,0.704,4.759,2.12,5.786
		c1.415,1.033,3.153,1.547,5.213,1.547c2.903,0,5.252-0.744,7.049-2.231c1.791-1.488,3.113-4.219,3.949-8.195l6.536-32.654h-6.187
		c0.757-6.872,2.132-13.75,4.121-20.622h38.729c-0.843,6.872-2.219,13.75-4.127,20.622h-5.154l-7.563,37.354
		c-1.83,9.32-6.148,16.251-12.947,20.799c-6.799,4.542-15.85,6.813-27.158,6.813c-10.386,0-18.351-2.132-23.886-6.417
		c-5.542-4.272-8.307-10.268-8.307-17.989c0-1.297,0.112-3.015,0.342-5.154s0.724-5.082,1.487-8.82L1138.375,980.847zM1218.696,1023.131l8.479-42.284h-5.272c0.921-6.872,2.29-13.75,4.127-20.622h39.763
		c5.114,0,9.373,0.612,12.775,1.83c3.396,1.224,6.108,2.863,8.129,4.93c2.027,2.06,3.456,4.469,4.299,7.214
		c0.842,2.751,1.264,5.654,1.264,8.708c0,4.055-0.73,7.925-2.179,11.631c-1.455,3.706-3.646,7.01-6.589,9.913
		s-6.608,5.213-10.999,6.931c-4.396,1.718-9.53,2.58-15.409,2.58h-11.347l-1.83,9.169h10.538c-0.382,3.436-0.915,6.872-1.606,10.308
		c-0.685,3.442-1.487,6.878-2.402,10.314h-41.02c0.382-3.436,0.915-6.872,1.606-10.314c0.684-3.436,1.486-6.872,2.402-10.308
		H1218.696z M1258.11,993.794c1.988,0,3.766-0.665,5.332-2.007c1.56-1.33,2.35-3.337,2.35-6.009c0-1.988-0.54-3.364-1.606-4.127
		c-1.073-0.764-2.481-1.146-4.239-1.146h-7.45l-2.633,13.289H1258.11zM1381.538,990.931c0.151-0.691,0.264-1.355,0.343-2.007c0.072-0.645,0.112-1.237,0.112-1.777
		c0-4.582-2.634-6.872-7.905-6.872c-1.758,0-3.595,0.533-5.503,1.606c-1.909,1.066-3.666,2.653-5.266,4.752
		c-1.606,2.1-2.923,4.739-3.956,7.905c-1.033,3.172-1.547,6.819-1.547,10.946c0,5.114,1.277,8.978,3.838,11.572
		c2.56,2.6,6.858,3.896,12.894,3.896c3.206,0,6.24-0.323,9.11-0.974c2.863-0.652,5.437-1.448,7.733-2.409
		c2.291-0.955,4.292-1.948,6.017-2.975c1.718-1.033,3.073-1.896,4.067-2.58l-5.391,27.381c-0.836,0.388-2.1,0.941-3.778,1.666
		c-1.685,0.724-3.745,1.435-6.187,2.119c-2.449,0.685-5.272,1.297-8.479,1.83c-3.212,0.54-6.727,0.803-10.544,0.803
		c-7.333,0-13.461-0.915-18.391-2.745c-4.924-1.836-8.88-4.397-11.861-7.681c-2.976-3.285-5.114-7.142-6.411-11.571
		c-1.303-4.43-1.948-9.281-1.948-14.553c0-8.096,1.277-15.31,3.838-21.655c2.554-6.338,5.937-11.69,10.136-16.041
		c4.207-4.357,8.979-7.675,14.323-9.972c5.352-2.291,10.808-3.436,16.39-3.436c2.823,0,5.271,0.171,7.332,0.52
		c2.061,0.342,3.818,0.763,5.272,1.257c1.448,0.5,2.633,0.994,3.548,1.488c0.922,0.5,1.605,0.902,2.066,1.205l0.454-2.402
		c1.758-0.158,3.495-0.27,5.214-0.349c1.718-0.072,3.455-0.112,5.213-0.112c1.757,0,3.455,0.04,5.101,0.112
		c1.64,0.079,3.344,0.191,5.102,0.349l-7.905,39.183c-2.139,0.151-4.245,0.27-6.306,0.342c-2.061,0.079-4.127,0.119-6.188,0.119
		c-2.06,0-4.106-0.04-6.128-0.119c-2.027-0.072-4.034-0.191-6.016-0.342L1381.538,990.931zM1420.291,985.81l23.851-26.427h14.26l-5.473,27.23h4.054c-0.161,1.718-0.397,3.37-0.704,4.946
		c-0.309,1.58-0.707,3.229-1.197,4.946h-4.055l-1.294,6.579h-14.017l1.294-6.579h-18.809L1420.291,985.81z M1438.915,986.613
		l2.09-10.265l-9.344,10.265H1438.915zM1479.313,1013.501c1.988-0.151,3.995-0.263,6.017-0.342c2.027-0.072,4.028-0.112,6.016-0.112
		c1.988,0,3.937,0.04,5.845,0.112c1.909,0.079,3.857,0.191,5.845,0.342c-0.309,1.303-0.48,2.139-0.52,2.521
		s-0.053,0.652-0.053,0.803c0,1.988,1.086,3.666,3.265,5.042c2.179,1.375,5.325,2.06,9.452,2.06c2.902,0,5.022-0.494,6.358-1.488
		c1.336-0.994,2.008-2.139,2.008-3.436c0-1.225-0.31-2.159-0.922-2.811c-0.612-0.646-1.981-1.277-4.12-1.889l-12.605-3.778
		c-2.521-0.763-5.041-1.646-7.563-2.639c-2.521-0.987-4.792-2.311-6.819-3.949c-2.021-1.646-3.686-3.726-4.982-6.247
		c-1.304-2.521-1.948-5.687-1.948-9.511c0-3.969,0.822-7.754,2.462-11.341c1.646-3.594,3.995-6.76,7.05-9.512
		c3.054-2.751,6.72-4.93,10.998-6.529c4.278-1.606,9.051-2.409,14.323-2.409c4.812,0,8.747,0.48,11.802,1.435
		c3.054,0.955,5.345,1.929,6.878,2.922l0.454-2.521c1.758-0.158,3.476-0.27,5.16-0.349c1.679-0.072,3.396-0.112,5.154-0.112
		c1.757,0,3.455,0.04,5.101,0.112c1.64,0.079,3.338,0.191,5.095,0.349l-5.384,27.27c-1.988,0.151-3.976,0.263-5.957,0.342
		c-1.987,0.079-3.976,0.112-5.957,0.112c-1.987,0-3.956-0.033-5.904-0.112c-1.948-0.079-3.916-0.191-5.897-0.342
		c0.151-0.764,0.244-1.303,0.283-1.606c0.039-0.303,0.06-0.533,0.06-0.685c0-1.606-0.843-3.021-2.521-4.246
		c-1.685-1.218-4.206-1.83-7.563-1.83c-3.133,0-5.272,0.5-6.418,1.488c-1.146,0.994-1.718,2.027-1.718,3.094
		c0,0.994,0.343,1.777,1.033,2.35c0.685,0.573,1.948,1.125,3.778,1.659l11.571,3.442c4.127,1.146,7.662,2.422,10.604,3.837
		c2.937,1.416,5.346,3.074,7.215,4.983c1.869,1.909,3.245,4.087,4.127,6.529c0.875,2.449,1.316,5.312,1.316,8.596
		c0,4.048-0.533,7.603-1.606,10.657c-1.066,3.054-2.501,5.713-4.291,7.964c-1.797,2.251-3.864,4.14-6.188,5.667
		c-2.337,1.534-4.778,2.738-7.339,3.614s-5.114,1.507-7.675,1.889c-2.561,0.381-4.983,0.573-7.273,0.573
		c-3.133,0-5.983-0.171-8.537-0.514c-2.561-0.342-4.778-0.744-6.647-1.205c-1.87-0.46-3.396-0.935-4.582-1.435
		c-1.185-0.493-2.007-0.855-2.461-1.086l-0.58,2.521c-1.829,0.151-3.646,0.27-5.437,0.342c-1.797,0.079-3.574,0.119-5.331,0.119
		c-1.758,0-3.516-0.04-5.272-0.119c-1.758-0.072-3.515-0.191-5.266-0.342L1479.313,1013.501zM1608.796,990.931c0.152-0.691,0.264-1.355,0.343-2.007c0.072-0.645,0.112-1.237,0.112-1.777
		c0-4.582-2.633-6.872-7.905-6.872c-1.758,0-3.595,0.533-5.503,1.606c-1.909,1.066-3.666,2.653-5.266,4.752
		c-1.606,2.1-2.923,4.739-3.956,7.905c-1.033,3.172-1.547,6.819-1.547,10.946c0,5.114,1.277,8.978,3.838,11.572
		c2.56,2.6,6.858,3.896,12.894,3.896c3.206,0,6.24-0.323,9.11-0.974c2.863-0.652,5.437-1.448,7.733-2.409
		c2.291-0.955,4.292-1.948,6.017-2.975c1.718-1.033,3.073-1.896,4.067-2.58l-5.391,27.381c-0.836,0.388-2.1,0.941-3.778,1.666
		c-1.685,0.724-3.745,1.435-6.187,2.119c-2.449,0.685-5.272,1.297-8.479,1.83c-3.212,0.54-6.727,0.803-10.544,0.803
		c-7.333,0-13.461-0.915-18.391-2.745c-4.924-1.836-8.88-4.397-11.861-7.681c-2.975-3.285-5.114-7.142-6.411-11.571
		c-1.303-4.43-1.948-9.281-1.948-14.553c0-8.096,1.277-15.31,3.838-21.655c2.554-6.338,5.937-11.69,10.136-16.041
		c4.206-4.357,8.979-7.675,14.323-9.972c5.352-2.291,10.808-3.436,16.39-3.436c2.823,0,5.272,0.171,7.332,0.52
		c2.061,0.342,3.818,0.763,5.272,1.257c1.448,0.5,2.633,0.994,3.548,1.488c0.922,0.5,1.605,0.902,2.066,1.205l0.454-2.402
		c1.758-0.158,3.495-0.27,5.214-0.349c1.718-0.072,3.455-0.112,5.213-0.112c1.757,0,3.455,0.04,5.101,0.112
		c1.64,0.079,3.344,0.191,5.102,0.349l-7.905,39.183c-2.139,0.151-4.245,0.27-6.306,0.342c-2.061,0.079-4.127,0.119-6.188,0.119
		c-2.06,0-4.106-0.04-6.128-0.119c-2.027-0.072-4.034-0.191-6.016-0.342L1608.796,990.931zM1637.896,1023.131l8.479-42.284h-5.272c0.921-6.872,2.29-13.75,4.127-20.622h40.678
		c4.199,0,7.997,0.381,11.399,1.145c3.396,0.764,6.28,2.041,8.649,3.837c2.37,1.797,4.199,4.14,5.503,7.043
		c1.297,2.909,1.948,6.457,1.948,10.656c0,5.963-1.455,11.098-4.357,15.416c-2.903,4.318-6.681,7.925-11.341,10.828l3.666,13.98
		h8.136c-0.382,3.436-0.915,6.872-1.606,10.308c-0.685,3.442-1.487,6.878-2.402,10.314h-27.389l-6.647-30.021h-6.411l-1.948,9.399
		h5.042c-0.389,3.436-0.922,6.872-1.606,10.308c-0.69,3.442-1.487,6.878-2.409,10.314h-35.517c0.382-3.436,0.915-6.872,1.606-10.314
		c0.684-3.436,1.487-6.872,2.402-10.308H1637.896z M1678.686,993.794c2.521,0,4.581-0.704,6.187-2.119
		c1.606-1.415,2.409-3.337,2.409-5.786c0-2.291-0.671-3.765-2.007-4.41c-1.337-0.652-2.692-0.974-4.068-0.974h-9.511l-2.633,13.289
		H1678.686zM1720.278,1023.131l8.478-42.284h-5.272c0.922-6.872,2.291-13.75,4.127-20.622h35.518l4.245,48.01
		l23.945-48.01h35.518c-0.843,6.872-2.212,13.75-4.12,20.622h-5.161l-8.478,42.284h5.154c-0.382,3.436-0.915,6.872-1.6,10.308
		c-0.691,3.442-1.494,6.878-2.409,10.314h-30.363l8.82-44.456l-19.819,42.738h-17.074l-2.633-42.738l-8.826,44.456h-29.33
		c0.382-3.436,0.915-6.872,1.605-10.314c0.686-3.436,1.488-6.872,2.403-10.308H1720.278zM1080.521,1120.441
			c4.538,0.286,9.509,0.426,14.906,0.426h63.458c6.814,0,12.351-0.14,16.609-0.426v8.518c-3.693-0.279-8.804-0.426-15.332-0.426
			h-43.866c0,3.128-0.146,8.804-0.426,17.035h47.699c-0.572,3.693-1.138,9.09-1.704,16.184l-2.555,23.424
			c-0.572,5.111-2.981,8.444-7.24,10.009c-4.259,1.557-10.507,2.768-18.739,3.62c-0.286-3.693-1.424-6.961-3.407-9.796
			c6.528,0.279,11.499,0,14.906-0.852c3.407-0.852,5.537-3.261,6.389-7.24l2.555-27.683h-38.33
			c-1.138,7.952-2.915,14.627-5.323,20.017c-2.416,5.397-5.75,10.368-10.008,14.906c-4.259,4.538-8.518,8.518-12.777,11.925
			c-1.138-1.703-3.693-3.693-7.666-5.962c3.687-1.99,7.593-5.111,11.712-9.37c4.113-4.259,7.52-9.083,10.221-14.48
			c2.695-5.39,4.399-11.353,5.111-17.887c0.706-6.528,1.065-14.48,1.065-23.85h-11.925c-6.249,0-11.359,0.146-15.332,0.426V1120.441
			z M1117.147,1102.98c2.556-1.417,5.111-2.981,7.666-4.685c3.121,4.831,6.242,10.082,9.37,15.758
			c-2.841,1.138-5.683,2.702-8.518,4.685C1123.109,1113.062,1120.268,1107.811,1117.147,1102.98zM1233.414,1164.308
			c0-1.703-0.146-3.833-0.426-6.389h8.092c-0.286,2.276-0.426,4.405-0.426,6.389h25.553c5.111,0,10.222-0.14,15.332-0.426v6.814
			c-5.11-0.28-10.221-0.427-15.332-0.427h-18.313c4.824,4.832,10.573,8.805,17.248,11.925c6.668,3.128,13.842,5.397,21.508,6.814
			c-1.99,1.418-3.833,3.973-5.537,7.666c-9.655-2.841-17.887-6.534-24.701-11.073c-6.814-4.538-12.071-9.369-15.758-14.479v14.479
			c0,3.407,0.14,7.806,0.426,13.203h-8.092c0.279-5.397,0.426-10.082,0.426-14.055v-12.351c-4.259,4.545-9.369,8.804-15.332,12.776
			c-5.962,3.973-14.2,8.092-24.701,12.351c-1.704-2.841-3.554-5.257-5.537-7.239c7.38-1.425,14.334-3.833,20.869-7.24
			c6.527-3.407,12.204-7.666,17.035-12.777h-19.165c-3.407,0-7.813,0.146-13.202,0.427v-6.814c5.39,0.286,9.795,0.426,13.202,0.426
			H1233.414z M1228.304,1126.829h37.903c3.687,0,7.945-0.14,12.777-0.426v6.814c-5.397-0.279-10.934-0.426-16.61-0.426
			c-3.407,4.545-7.386,8.664-11.925,12.351c8.518,2.276,18.027,4.971,28.535,8.092c-0.853,1.704-1.851,4.259-2.981,7.666
			c-9.656-3.973-20.163-7.666-31.516-11.073c-5.684,3.128-12.284,5.471-19.804,7.027c-7.526,1.563-15.691,2.489-24.488,2.769
			c-0.286-2.27-1.564-4.825-3.833-7.666c7.094,0.572,13.907,0.499,20.442-0.213c6.527-0.706,12.351-2.057,17.461-4.046
			c-7.101-1.418-16.47-3.121-28.108-5.111c4.259-4.259,7.24-7.52,8.943-9.795h-8.092c-2.275,0-6.388,0.146-12.351,0.426v-6.814
			c5.11,0.286,9.224,0.426,12.351,0.426h12.777c3.12-3.687,5.676-7.38,7.665-11.073l7.24,5.111
			C1234.119,1120.588,1231.99,1122.57,1228.304,1126.829z M1241.932,1109.794h35.774c-0.286,1.704-0.426,3.693-0.426,5.962
			c0,1.99,0.14,4.259,0.426,6.814h-8.092v-7.24h-65.16v7.666h-8.092c0.279-2.269,0.426-4.538,0.426-6.813
			c0-2.556-0.146-4.685-0.426-6.389h37.052c-1.703-3.121-3.407-5.676-5.11-7.666c3.687-1.417,6.102-2.695,7.24-3.833
			C1238.664,1103.126,1240.794,1106.959,1241.932,1109.794z M1242.357,1143.014c3.687-1.983,7.38-5.391,11.073-10.222h-29.812
			c-1.704,1.989-3.554,4.119-5.537,6.389C1226.879,1140.604,1234.972,1141.882,1242.357,1143.014zM1319.018,1110.22h22.146
			c-1.425,1.99-3.268,4.685-5.537,8.092c-2.275,3.407-3.833,5.963-4.685,7.666h15.332c-0.572,5.684-0.852,11.359-0.852,17.036
			v43.866c0,3.407-0.925,5.603-2.769,6.601c-1.85,0.992-4.758,1.771-8.73,2.343c-0.572-3.128-1.424-6.108-2.556-8.943
			c2.27,0,3.973-0.066,5.11-0.213c1.132-0.14,1.704-1.491,1.704-4.046v-14.055h-8.943v20.017h-7.24v-20.017h-8.943
			c-0.286,4.259-0.999,8.664-2.13,13.202c-1.138,4.545-2.981,9.51-5.536,14.906c-2.556-1.424-5.258-2.841-8.092-4.259
			c2.834-3.979,4.964-8.87,6.388-14.693c1.418-5.815,2.27-13.269,2.556-22.358c0.279-9.084,0.279-18.167,0-27.257
			c-2.276,2.555-4.119,4.545-5.537,5.962c-1.703-2.269-3.692-4.259-5.962-5.962c4.259-3.407,8.158-7.593,11.712-12.564
			c3.547-4.964,6.455-10.86,8.73-17.674c2.27,1.424,5.25,2.981,8.943,4.685C1321.853,1103.692,1320.148,1106.247,1319.018,1110.22z
			 M1322.425,1125.978c2.27-2.835,4.259-5.962,5.962-9.369h-13.628c-2.556,3.407-4.831,6.534-6.814,9.369H1322.425z
			 M1321.999,1161.752v-11.499h-8.092l-0.426,11.499H1321.999z M1321.999,1143.865v-11.499h-8.092v11.499H1321.999z
			 M1338.183,1143.865v-11.499h-8.943v11.499H1338.183z M1338.183,1161.752v-11.499h-8.943v11.499H1338.183z M1371.827,1128.533
			c3.121,0,5.604-0.14,7.453-0.426c1.844-0.279,2.908-1.132,3.194-2.556c0.279-1.417,0.705-6.389,1.278-14.906h-15.332
			c-1.704,7.952-3.407,13.702-5.111,17.249c-1.703,3.553-4.405,7.453-8.092,11.712c-1.703-2.27-3.979-4.399-6.813-6.389
			c3.12-2.27,5.676-5.177,7.665-8.73c1.983-3.547,3.407-8.158,4.26-13.841c-3.407,0-7.526,0.146-12.352,0.426v-7.24
			c4.539,0.286,8.658,0.426,12.352,0.426h31.941c-0.853,13.915-1.638,22.292-2.343,25.127c-0.712,2.842-2.488,4.831-5.323,5.963
			c-2.842,1.138-6.109,1.85-9.796,2.129C1374.236,1134.355,1373.245,1131.374,1371.827,1128.533z M1362.032,1151.957h7.24
			c0-5.963-0.146-9.936-0.426-11.925h8.518c-0.572,2.555-0.852,6.534-0.852,11.925h5.962c4.259,0,7.666-0.14,10.222-0.426v7.666
			c-3.693-0.566-7.387-0.853-11.073-0.853h-5.11v12.352h2.98c5.391,0,10.927-0.141,16.61-0.427v7.24
			c-5.397-0.279-10.934-0.426-16.61-0.426h-2.98v7.24c0,3.973,0.14,8.943,0.426,14.906h-8.092
			c0.279-5.963,0.426-10.934,0.426-14.906v-7.24h-9.37c-3.127,0-7.1,0.146-11.925,0.426v-7.24c4.259,0.286,8.232,0.427,11.925,0.427
			h9.37v-12.352h-10.647c-0.852,2.276-2.129,5.111-3.833,8.519c-1.989-1.132-4.259-2.695-6.814-4.686
			c1.983-2.269,3.687-5.25,5.111-8.943c1.417-3.687,2.555-7.24,3.407-10.647l8.518,4.259
			C1363.589,1147.984,1362.598,1149.688,1362.032,1151.957zM1421.656,1169.631
			c-3.406,6.675-5.962,11.998-7.666,15.971c-2.555-2.269-5.683-4.398-9.369-6.388c3.121-3.687,6.528-8.658,10.222-14.906
			c3.687-6.242,6.668-12.49,8.943-18.739c1.983,2.276,4.538,4.259,7.666,5.963
			C1428.324,1156.928,1425.063,1162.963,1421.656,1169.631z M1422.083,1117.886c2.834,3.407,5.815,6.961,8.943,10.647
			c-2.276,1.703-4.685,3.833-7.24,6.388c-2.556-3.687-8.378-10.646-17.461-20.868c2.269-1.983,4.538-4.112,6.813-6.388
			C1416.26,1111.072,1419.241,1114.479,1422.083,1117.886z M1438.267,1125.552v-8.092c5.11,0.286,11.778,0.426,20.017,0.426
			c0-7.945-0.146-14.054-0.426-18.313c3.12,0.286,6.388,0.572,9.795,0.852c-0.572,3.979-0.852,9.795-0.852,17.461h25.127
			c-0.286,4.545-0.426,14.906-0.426,31.09c4.538,0,8.518-0.14,11.925-0.426v8.092c-4.259-0.279-8.518-0.426-12.776-0.426h-21.721
			c8.232,17.607,20.583,27.969,37.053,31.09c-3.128,2.269-5.257,5.536-6.389,9.795c-17.607-5.962-29.672-17.461-36.2-34.496
			c-6.248,15.331-17.035,27.536-32.367,36.626c-1.704-2.842-4.119-5.11-7.24-6.814c16.749-8.518,27.683-20.582,32.793-36.2h-6.813
			c-5.111,0-10.222,0.146-15.332,0.426v-8.092c5.11,0.286,10.221,0.426,15.332,0.426h7.666c0.565-9.369,0.852-17.314,0.852-23.85
			C1450.045,1125.126,1443.377,1125.272,1438.267,1125.552z M1482.984,1148.976v-23.85h-16.184
			c-0.286,9.655-0.572,17.607-0.852,23.85H1482.984zM1565.18,1113.84
			c-0.852,3.268-1.989,7.739-3.407,13.416h34.071c2.835,0,7.094-0.141,12.776-0.427v8.092c-5.683-0.279-9.941-0.426-12.776-0.426
			h-35.774c-1.704,4.259-3.554,8.519-5.537,12.777h45.145c-5.396,13.063-12.923,23.996-22.572,32.793
			c7.666,5.396,18.879,8.943,33.646,10.647c-1.99,2.269-3.693,5.11-5.111,8.518c-5.683-1.138-11.498-2.769-17.461-4.897
			c-5.962-2.13-11.785-5.185-17.461-9.157c-4.545,2.842-10.082,5.604-16.61,8.305c-6.534,2.695-13.202,4.898-20.017,6.602
			c-0.572-2.842-1.989-5.536-4.259-8.092c6.242-0.852,12.49-2.343,18.739-4.472c6.242-2.13,11.778-4.751,16.609-7.879
			c-4.831-4.824-10.221-11.778-16.184-20.868c-3.128,5.11-7.101,10.081-11.925,14.905c-4.831,4.831-10.081,9.23-15.758,13.203
			c-1.138-1.983-3.407-4.112-6.814-6.389c4.259-2.27,8.445-5.25,12.563-8.943c4.113-3.687,8.445-8.585,12.99-14.693
			c4.538-6.103,8.371-13.555,11.499-22.359c-7.387,0-13.063,0.146-17.036,0.426c-3.979,0.286-6.96,0.853-8.943,1.704
			c-0.852-2.556-1.989-5.251-3.407-8.092c2.835-0.565,4.897-2.695,6.176-6.389c1.277-3.687,2.622-9.369,4.046-17.035
			c2.269,1.138,5.39,2.276,9.369,3.407c-1.424,2.841-2.701,5.749-3.833,8.73c-1.138,2.981-2.415,6.321-3.833,10.009h19.591
			c2.27-9.084,3.973-17.741,5.111-25.979c3.12,1.704,6.388,2.702,9.795,2.981C1567.163,1107.385,1566.031,1110.579,1565.18,1113.84z
			 M1571.568,1175.381c6.242-5.111,11.778-12.204,16.609-21.295h-33.219C1558.932,1161.187,1564.468,1168.287,1571.568,1175.381z
			 M1598.825,1118.312c-1.99,1.138-4.405,2.981-7.24,5.537c-4.545-6.528-8.943-12.065-13.202-16.61
			c1.982-1.417,3.973-3.261,5.962-5.537C1589.169,1107.099,1593.994,1112.635,1598.825,1118.312zM1658.875,1116.183
			c3.121-6.242,5.391-12.351,6.814-18.313c3.973,1.424,7.52,2.702,10.647,3.833c-1.425,1.138-3.979,5.962-7.666,14.48h31.516
			c8.518,0,15.472-0.14,20.868-0.426v7.667h-56.217c-4.545,7.951-8.804,14.34-12.776,19.164h22.146
			c0-6.241-0.146-11.353-0.426-15.331h8.943c-0.286,3.979-0.426,9.09-0.426,15.331h29.813c-0.286,5.111-0.426,10.222-0.426,15.332
			v17.462c0,5.396-1.491,8.804-4.472,10.221c-2.981,1.425-7.313,2.416-12.99,2.981c-0.572-3.973-1.85-7.24-3.833-9.795
			c6.528,0,10.435-0.426,11.712-1.278c1.278-0.852,1.771-3.121,1.491-6.813v-20.869h-21.295v28.961c0,5.962,0.14,12.49,0.426,19.591
			h-8.943c0.279-7.101,0.426-13.629,0.426-19.591v-28.961h-20.017v38.33h-8.518c0.279-5.963,0.426-11.778,0.426-17.461v-20.443
			c-3.693,4.259-9.229,9.656-16.609,16.184c-1.99-2.269-4.545-4.398-7.666-6.388c6.242-4.259,12.277-9.437,18.1-15.545
			c5.816-6.103,10.86-13.13,15.119-21.081h-10.221c-7.101,0-13.629,0.146-19.591,0.426v-8.092c5.962,0.287,12.49,0.426,19.591,0.426
			H1658.875zM1831.786,1138.328
			c-2.556,2.276-4.546,4.831-5.963,7.666c-19.312-8.797-33.932-20.156-43.866-34.071c-13.349,15.052-27.969,27.117-43.866,36.201
			c-2.842-3.973-5.258-6.389-7.24-7.24c10.501-3.687,20.509-9.796,30.025-18.313c9.509-8.518,15.971-16.323,19.377-23.423
			c2.556,1.704,5.537,3.267,8.944,4.685l-2.556,2.555C1796.577,1120.588,1811.623,1131.234,1831.786,1138.328z M1758.533,1187.306
			c18.739-0.565,33.219-1.132,43.44-1.704c-2.556-2.834-6.389-6.527-11.499-11.072c1.983-1.704,3.973-3.547,5.963-5.537
			c3.973,3.693,7.806,7.313,11.498,10.86c3.688,3.554,7.946,7.879,12.777,12.989c-1.99,1.704-4.405,3.833-7.24,6.389
			c-2.556-3.693-4.685-6.249-6.389-7.666c-6.534,0.279-17.108,0.852-31.729,1.703c-14.626,0.853-24.063,1.844-28.321,2.981
			c-1.424-3.693-2.556-6.534-3.407-8.518c4.538-1.418,9.936-5.037,16.184-10.86c6.242-5.815,10.647-10.574,13.203-14.267h-12.352
			c-7.666,0-14.766,0.146-21.294,0.426v-7.24c6.814,0.286,13.769,0.426,20.868,0.426h42.589c7.094,0,14.055-0.14,20.868-0.426v7.24
			c-6.813-0.28-14.34-0.426-22.571-0.426h-25.554c2.27,2.275,4.398,3.979,6.389,5.11
			C1779.967,1169.139,1772.161,1175.667,1758.533,1187.306z M1789.623,1136.625c6.242,0,11.353-0.14,15.332-0.426v7.666
			c-4.259-0.279-9.37-0.426-15.332-0.426h-18.313c-5.396,0-9.941,0.146-13.628,0.426v-7.666c3.687,0.286,8.092,0.426,13.202,0.426
			H1789.623zM1001.97,1805.221v-24.063
			c0-2.514-0.162-5.816-0.472-9.907h9.908c-0.317,4.091-0.472,7.549-0.472,10.38v78.79c0,3.464,0.155,8.33,0.472,14.625h-9.908
			c0.31-6.295,0.472-12.267,0.472-17.928c-6.605,1.577-12.584,3.229-17.928,4.953c-5.352,1.732-9.281,3.384-11.795,4.954
			c-1.578-3.457-3.465-6.914-5.662-10.379c3.458-0.31,9.119-1.416,16.985-3.303c7.858-1.888,13.992-3.458,18.4-4.718v-35.385
			h-16.985c-3.774,0-8.021,0.162-12.738,0.472v-8.965c4.718,0.317,8.964,0.473,12.738,0.473H1001.97z M1037.827,1780.687v32.082
			c11.006-5.027,20.597-11.16,28.78-18.399c1.887,3.147,4.401,6.133,7.549,8.964c-3.465,1.577-8.964,4.327-16.513,8.257
			c-7.549,3.937-14.154,7.157-19.815,9.672v35.385c0,5.034,2.359,7.711,7.077,8.021h11.795c3.14,0.316,5.344-0.236,6.605-1.651
			c1.253-1.416,2.514-5.426,3.774-12.031c2.514,2.521,6.133,4.092,10.851,4.718c-2.521,6.605-4.799,11.088-6.841,13.446
			c-2.049,2.359-4.954,3.539-8.728,3.539h-20.759c-8.81,0-13.056-4.719-12.739-14.154v-77.847c0-3.14-0.162-6.288-0.472-9.436h9.908
			C1037.981,1774.398,1037.827,1777.547,1037.827,1780.687zM1150.114,1783.046h25.949
			c7.232,0,13.52-0.155,18.872-0.472v8.964c-5.352-0.31-11.64-0.472-18.872-0.472h-67.467c-5.979,0-12.267,0.162-18.872,0.472
			v-8.964c6.288,0.316,12.576,0.472,18.872,0.472h30.195c-0.943-2.831-3.148-7.077-6.605-12.738c3.774-1.254,6.76-2.514,8.964-3.774
			C1144.291,1771.568,1147.283,1777.074,1150.114,1783.046z M1097.745,1872.216c-2.521-2.831-5.035-5.353-7.549-7.549
			c13.21-9.746,22.484-18.556,27.836-26.421c2.197,2.831,4.718,5.352,7.549,7.549
			C1119.919,1851.456,1110.638,1860.266,1097.745,1872.216z M1177.479,1819.374c0,6.922,0.155,12.267,0.472,16.041h-29.723v28.78
			c0,5.344-1.416,8.802-4.246,10.379c-2.831,1.57-8.183,2.831-16.042,3.774c-0.943-3.774-2.521-7.239-4.718-10.38
			c6.915,0.311,11.242,0.155,12.975-0.472c1.725-0.634,2.595-2.83,2.595-6.604v-25.478h-31.139
			c0.31-5.345,0.472-11.323,0.472-17.928c0-6.605-0.162-12.104-0.472-16.514h70.298
			C1177.633,1806.009,1177.479,1812.143,1177.479,1819.374z M1168.042,1827.395v-18.399h-50.482v18.399H1168.042z M1181.96,1853.579
			c4.873,3.937,8.566,7.158,11.087,9.672c-2.521,2.521-5.035,5.19-7.549,8.021c-4.409-5.034-13.373-12.893-26.893-23.59
			c1.887-2.196,3.929-4.718,6.133-7.549C1171.345,1845.168,1177.08,1849.65,1181.96,1853.579zM1259.1,1780.215l-50.011,89.17
			l-4.718-2.831l50.011-89.17L1259.1,1780.215zM1323.735,1785.405v19.815h26.893
			c6.288,0,12.267-0.155,17.929-0.473v10.38c-6.296-0.31-12.584-0.472-18.872-0.472h-25.949v47.651h37.272
			c4.718,0,10.217-0.154,16.513-0.472v9.907c-5.979-0.316-11.485-0.472-16.513-0.472h-74.544c-5.035,0-10.696,0.155-16.984,0.472
			v-9.907c5.971,0.317,11.633,0.472,16.984,0.472h27.364v-76.431c0-4.719-0.162-9.908-0.472-15.569h10.852
			C1323.891,1775.659,1323.735,1780.687,1323.735,1785.405zM1388.371,1808.522
			c2.197-2.196,3.93-4.718,5.19-7.549c5.661,3.465,13.21,8.493,22.646,15.098c-2.521,2.831-4.563,5.507-6.133,8.021
			C1401.582,1817.178,1394.343,1811.987,1388.371,1808.522z M1409.603,1851.928c-2.831,6.923-6.605,14.626-11.323,23.118
			c-1.261-1.887-4.246-3.619-8.965-5.189c3.774-5.345,7.387-11.559,10.852-18.636c3.458-7.077,6.443-13.756,8.964-20.052
			c2.197,2.521,4.719,4.563,7.549,6.134C1414.792,1840.133,1412.433,1845.014,1409.603,1851.928z M1421.869,1784.933
			c-2.204,2.831-4.246,5.507-6.134,8.021c-7.239-5.971-14.471-11.006-21.702-15.097c2.196-2.515,3.929-4.873,5.189-7.077
			C1405.193,1774.244,1412.742,1778.962,1421.869,1784.933z M1493.11,1854.287v8.492c-2.521-0.31-5.662-0.472-9.437-0.472
			c-0.634,7.231-2.123,11.633-4.481,13.21c-2.359,1.57-6.215,2.669-11.56,3.303c-0.943-2.83-2.204-5.979-3.774-9.436
			c4.719,0.31,7.785,0.073,9.2-0.708c1.416-0.789,2.278-2.904,2.595-6.369h-45.292c0.943-9.745,1.725-19.344,2.358-28.779
			c-3.464,0-7.076,0.162-10.851,0.472v-8.492c3.14,0.316,6.914,0.472,11.323,0.472c0.626-11.633,1.098-20.125,1.415-25.478
			c-1.577,2.204-4.408,5.979-8.492,11.323c-2.204-2.196-4.563-4.084-7.077-5.661c5.345-5.345,9.826-11.633,13.446-18.872
			c3.612-7.231,6.207-13.992,7.784-20.287c3.774,2.204,7.077,3.619,9.908,4.246c-1.261,1.577-2.993,4.718-5.189,9.436h33.969
			c5.972,0,11.323-0.154,16.041-0.472v8.492c-4.718-0.31-10.225-0.472-16.513-0.472h-36.8c-2.204,3.774-4.408,7.395-6.605,10.852
			h51.426c-0.316,7.549-0.634,16.513-0.943,26.893c3.457,0,7.231-0.155,11.323-0.472V1834c-4.092-0.31-8.021-0.472-11.795-0.472
			c-0.317,4.091-0.634,11.168-0.943,21.23C1486.343,1854.759,1489.336,1854.604,1493.11,1854.287z M1477.541,1833.528h-37.272
			c-0.634,8.492-1.105,15.569-1.415,21.23h37.744L1477.541,1833.528z M1441.685,1806.636c0,4.091-0.317,10.542-0.944,19.344h37.272
			c0-6.915,0.154-13.365,0.472-19.344H1441.685z M1465.274,1849.098c-2.521,1.261-4.718,2.676-6.605,4.246
			c-2.521-5.027-5.189-9.591-8.021-13.683c2.197-1.57,4.246-2.985,6.134-4.246C1460.239,1840.45,1463.07,1845.014,1465.274,1849.098
			z M1465.746,1820.79c-2.521,1.26-4.718,2.676-6.605,4.246c-1.887-4.084-4.246-8.493-7.077-13.211l5.662-4.246
			C1461.183,1812.614,1463.858,1817.016,1465.746,1820.79z"/>
		<g stroke="url(#logoGradient)">
			<line fill="none" stroke="#01A2EB" stroke-width="13.4802" stroke-miterlimit="10" x1="582.419" y1="728.327" x2="582.419" y2="735.067"/>
			
			<line fill="none" stroke="#01A2EB" stroke-width="13.4802" stroke-miterlimit="10" stroke-dasharray="13.4442,13.4442" x1="582.419" y1="748.512" x2="582.419" y2="1145.116"/>
			<polyline fill="none" stroke="#01A2EB" stroke-width="13.4802" stroke-miterlimit="10" points="582.419,1151.838 
				582.419,1158.578 588.983,1160.105 			"/>
			<path fill="none" stroke="#01A2EB" stroke-width="13.4802" stroke-miterlimit="10" stroke-dasharray="13.4015,13.4015" d="
				M602.036,1163.143l149.665,34.826c0,0,110.32,14.642,121.872-68.504c5.937-56.468-88.292-71.172-93.703,4.7
				c0,0,67.677,131.24,51.643,163.52c-16.034,32.278-94.526,30.324-73.141-38.216c25.203-59.868,100.048-48.021,100.048-48.021
				l1024.153,174.555"/>
			<polyline fill="none" stroke="#01A2EB" stroke-width="13.4802" stroke-miterlimit="10" points="1889.179,1387.128 
				1895.823,1388.261 1895.823,1381.521 			"/>
			
				<line fill="none" stroke="#01A2EB" stroke-width="13.4802" stroke-miterlimit="10" stroke-dasharray="13.7543,13.7543" x1="1895.823" y1="1367.767" x2="1895.823" y2="741.944"/>
			<polyline fill="none" stroke="#01A2EB" stroke-width="13.4802" stroke-miterlimit="10" points="1895.823,735.067 
				1895.823,728.327 1889.083,728.327 			"/>
			
				<line fill="none" stroke="#01A2EB" stroke-width="13.4802" stroke-miterlimit="10" stroke-dasharray="13.3823,13.3823" x1="1875.701" y1="728.327" x2="597.687" y2="728.327"/>
			
				<line fill="none" stroke="#01A2EB" stroke-width="13.4802" stroke-miterlimit="10" x1="590.996" y1="728.327" x2="584.255" y2="728.327"/>
		</g>
	</g>
</svg>
